<mxfile host="Electron" agent="Mozilla/5.0 (Windows NT 10.0; Win64; x64) AppleWebKit/537.36 (KHTML, like Gecko) draw.io/27.0.2 Chrome/134.0.6998.205 Electron/35.3.0 Safari/537.36" version="27.0.2">
  <diagram name="Page-1" id="L9Wf18wxegTXPgusKJFE">
    <mxGraphModel dx="1895" dy="1153" grid="0" gridSize="10" guides="1" tooltips="1" connect="1" arrows="1" fold="1" page="1" pageScale="1" pageWidth="850" pageHeight="1100" math="0" shadow="0">
      <root>
        <mxCell id="0" />
        <mxCell id="1" parent="0" />
        <mxCell id="6vWtqtXVMB1vAv6v9ba5-1" value="User Managment&amp;nbsp; Package" style="shape=folder;fontStyle=1;spacingTop=10;tabWidth=126;tabHeight=28;tabPosition=left;html=1;whiteSpace=wrap;" vertex="1" parent="1">
          <mxGeometry x="50" y="51" width="618" height="385" as="geometry" />
        </mxCell>
        <mxCell id="6vWtqtXVMB1vAv6v9ba5-6" value="User" style="swimlane;fontStyle=1;align=center;verticalAlign=top;childLayout=stackLayout;horizontal=1;startSize=26;horizontalStack=0;resizeParent=1;resizeParentMax=0;resizeLast=0;collapsible=1;marginBottom=0;whiteSpace=wrap;html=1;" vertex="1" parent="1">
          <mxGeometry x="89" y="94" width="160" height="190" as="geometry">
            <mxRectangle x="220" y="160" width="70" height="30" as="alternateBounds" />
          </mxGeometry>
        </mxCell>
        <mxCell id="6vWtqtXVMB1vAv6v9ba5-7" value="&lt;div&gt;+ userId: int&lt;/div&gt;&lt;div&gt;+ username: String&lt;/div&gt;&lt;div&gt;+ password: String&lt;/div&gt;&lt;div&gt;+ email: String&lt;/div&gt;&lt;div&gt;+ fullName: String&lt;/div&gt;" style="text;strokeColor=none;fillColor=none;align=left;verticalAlign=top;spacingLeft=4;spacingRight=4;overflow=hidden;rotatable=0;points=[[0,0.5],[1,0.5]];portConstraint=eastwest;whiteSpace=wrap;html=1;" vertex="1" parent="6vWtqtXVMB1vAv6v9ba5-6">
          <mxGeometry y="26" width="160" height="84" as="geometry" />
        </mxCell>
        <mxCell id="6vWtqtXVMB1vAv6v9ba5-8" value="" style="line;strokeWidth=1;fillColor=none;align=left;verticalAlign=middle;spacingTop=-1;spacingLeft=3;spacingRight=3;rotatable=0;labelPosition=right;points=[];portConstraint=eastwest;strokeColor=inherit;" vertex="1" parent="6vWtqtXVMB1vAv6v9ba5-6">
          <mxGeometry y="110" width="160" height="8" as="geometry" />
        </mxCell>
        <mxCell id="6vWtqtXVMB1vAv6v9ba5-9" value="&lt;div&gt;&lt;div&gt;+ login()&lt;/div&gt;&lt;div&gt;+ logout()&lt;/div&gt;&lt;div&gt;+ viewShowtimes()&lt;/div&gt;&lt;div&gt;+ reserveSeat()&lt;/div&gt;&lt;/div&gt;" style="text;strokeColor=none;fillColor=none;align=left;verticalAlign=top;spacingLeft=4;spacingRight=4;overflow=hidden;rotatable=0;points=[[0,0.5],[1,0.5]];portConstraint=eastwest;whiteSpace=wrap;html=1;" vertex="1" parent="6vWtqtXVMB1vAv6v9ba5-6">
          <mxGeometry y="118" width="160" height="72" as="geometry" />
        </mxCell>
        <mxCell id="6vWtqtXVMB1vAv6v9ba5-10" value="Admin" style="swimlane;fontStyle=1;align=center;verticalAlign=top;childLayout=stackLayout;horizontal=1;startSize=26;horizontalStack=0;resizeParent=1;resizeParentMax=0;resizeLast=0;collapsible=1;marginBottom=0;whiteSpace=wrap;html=1;" vertex="1" parent="1">
          <mxGeometry x="267" y="97" width="160" height="110" as="geometry" />
        </mxCell>
        <mxCell id="6vWtqtXVMB1vAv6v9ba5-11" value="+ field: type" style="text;strokeColor=none;fillColor=none;align=left;verticalAlign=top;spacingLeft=4;spacingRight=4;overflow=hidden;rotatable=0;points=[[0,0.5],[1,0.5]];portConstraint=eastwest;whiteSpace=wrap;html=1;" vertex="1" parent="6vWtqtXVMB1vAv6v9ba5-10">
          <mxGeometry y="26" width="160" height="4" as="geometry" />
        </mxCell>
        <mxCell id="6vWtqtXVMB1vAv6v9ba5-12" value="" style="line;strokeWidth=1;fillColor=none;align=left;verticalAlign=middle;spacingTop=-1;spacingLeft=3;spacingRight=3;rotatable=0;labelPosition=right;points=[];portConstraint=eastwest;strokeColor=inherit;" vertex="1" parent="6vWtqtXVMB1vAv6v9ba5-10">
          <mxGeometry y="30" width="160" as="geometry" />
        </mxCell>
        <mxCell id="6vWtqtXVMB1vAv6v9ba5-13" value="&lt;div&gt;+ manageUsers()&lt;/div&gt;&lt;div&gt;+ manageManagers()&lt;/div&gt;&lt;div&gt;+ viewReports()&lt;/div&gt;&lt;div&gt;+ updateServers()&lt;/div&gt;" style="text;strokeColor=none;fillColor=none;align=left;verticalAlign=top;spacingLeft=4;spacingRight=4;overflow=hidden;rotatable=0;points=[[0,0.5],[1,0.5]];portConstraint=eastwest;whiteSpace=wrap;html=1;" vertex="1" parent="6vWtqtXVMB1vAv6v9ba5-10">
          <mxGeometry y="30" width="160" height="80" as="geometry" />
        </mxCell>
        <mxCell id="6vWtqtXVMB1vAv6v9ba5-14" value="MovieManager" style="swimlane;fontStyle=1;align=center;verticalAlign=top;childLayout=stackLayout;horizontal=1;startSize=26;horizontalStack=0;resizeParent=1;resizeParentMax=0;resizeLast=0;collapsible=1;marginBottom=0;whiteSpace=wrap;html=1;" vertex="1" parent="1">
          <mxGeometry x="453" y="107" width="160" height="100" as="geometry" />
        </mxCell>
        <mxCell id="6vWtqtXVMB1vAv6v9ba5-15" value="" style="line;strokeWidth=1;fillColor=none;align=left;verticalAlign=middle;spacingTop=-1;spacingLeft=3;spacingRight=3;rotatable=0;labelPosition=right;points=[];portConstraint=eastwest;strokeColor=inherit;" vertex="1" parent="6vWtqtXVMB1vAv6v9ba5-14">
          <mxGeometry y="26" width="160" height="4" as="geometry" />
        </mxCell>
        <mxCell id="6vWtqtXVMB1vAv6v9ba5-16" value="&lt;div&gt;+ addMovie()&lt;/div&gt;&lt;div&gt;+ editMovie()&lt;/div&gt;&lt;div&gt;+ deleteMovie()&lt;/div&gt;&lt;div&gt;+ scheduleShowtime()&lt;/div&gt;" style="text;strokeColor=none;fillColor=none;align=left;verticalAlign=top;spacingLeft=4;spacingRight=4;overflow=hidden;rotatable=0;points=[[0,0.5],[1,0.5]];portConstraint=eastwest;whiteSpace=wrap;html=1;" vertex="1" parent="6vWtqtXVMB1vAv6v9ba5-14">
          <mxGeometry y="30" width="160" height="70" as="geometry" />
        </mxCell>
        <mxCell id="6vWtqtXVMB1vAv6v9ba5-17" value="Cinema Package&amp;nbsp;" style="shape=folder;fontStyle=1;spacingTop=10;tabWidth=138;tabHeight=33;tabPosition=left;html=1;whiteSpace=wrap;" vertex="1" parent="1">
          <mxGeometry x="787" y="46" width="572" height="391" as="geometry" />
        </mxCell>
        <mxCell id="6vWtqtXVMB1vAv6v9ba5-32" value="Hall" style="swimlane;fontStyle=1;align=center;verticalAlign=top;childLayout=stackLayout;horizontal=1;startSize=26;horizontalStack=0;resizeParent=1;resizeParentMax=0;resizeLast=0;collapsible=1;marginBottom=0;whiteSpace=wrap;html=1;" vertex="1" parent="1">
          <mxGeometry x="794" y="90" width="175" height="114" as="geometry" />
        </mxCell>
        <mxCell id="6vWtqtXVMB1vAv6v9ba5-33" value="&lt;div&gt;+ hallId: int&lt;/div&gt;&lt;div&gt;+ name: string&lt;/div&gt;&lt;div&gt;+ capacity: int&lt;/div&gt;" style="text;strokeColor=none;fillColor=none;align=left;verticalAlign=top;spacingLeft=4;spacingRight=4;overflow=hidden;rotatable=0;points=[[0,0.5],[1,0.5]];portConstraint=eastwest;whiteSpace=wrap;html=1;" vertex="1" parent="6vWtqtXVMB1vAv6v9ba5-32">
          <mxGeometry y="26" width="175" height="54" as="geometry" />
        </mxCell>
        <mxCell id="6vWtqtXVMB1vAv6v9ba5-34" value="" style="line;strokeWidth=1;fillColor=none;align=left;verticalAlign=middle;spacingTop=-1;spacingLeft=3;spacingRight=3;rotatable=0;labelPosition=right;points=[];portConstraint=eastwest;strokeColor=inherit;" vertex="1" parent="6vWtqtXVMB1vAv6v9ba5-32">
          <mxGeometry y="80" width="175" height="8" as="geometry" />
        </mxCell>
        <mxCell id="6vWtqtXVMB1vAv6v9ba5-35" value="+ getAvailableSeats()" style="text;strokeColor=none;fillColor=none;align=left;verticalAlign=top;spacingLeft=4;spacingRight=4;overflow=hidden;rotatable=0;points=[[0,0.5],[1,0.5]];portConstraint=eastwest;whiteSpace=wrap;html=1;" vertex="1" parent="6vWtqtXVMB1vAv6v9ba5-32">
          <mxGeometry y="88" width="175" height="26" as="geometry" />
        </mxCell>
        <mxCell id="6vWtqtXVMB1vAv6v9ba5-36" value="Reservation Package" style="shape=folder;fontStyle=1;spacingTop=10;tabWidth=120;tabHeight=35;tabPosition=left;html=1;whiteSpace=wrap;" vertex="1" parent="1">
          <mxGeometry x="81" y="547" width="603" height="408" as="geometry" />
        </mxCell>
        <mxCell id="6vWtqtXVMB1vAv6v9ba5-37" value="Seat" style="swimlane;fontStyle=1;align=center;verticalAlign=top;childLayout=stackLayout;horizontal=1;startSize=26;horizontalStack=0;resizeParent=1;resizeParentMax=0;resizeLast=0;collapsible=1;marginBottom=0;whiteSpace=wrap;html=1;" vertex="1" parent="1">
          <mxGeometry x="988" y="87" width="160" height="124" as="geometry" />
        </mxCell>
        <mxCell id="6vWtqtXVMB1vAv6v9ba5-38" value="&lt;div&gt;+ seatId: int&lt;/div&gt;&lt;div&gt;+ seatNumber: string&lt;/div&gt;&lt;div&gt;+ isAvailable: bool&lt;/div&gt;&lt;div&gt;+ row: string&lt;/div&gt;&lt;div&gt;&lt;br&gt;&lt;/div&gt;" style="text;strokeColor=none;fillColor=none;align=left;verticalAlign=top;spacingLeft=4;spacingRight=4;overflow=hidden;rotatable=0;points=[[0,0.5],[1,0.5]];portConstraint=eastwest;whiteSpace=wrap;html=1;flipH=1;" vertex="1" parent="6vWtqtXVMB1vAv6v9ba5-37">
          <mxGeometry y="26" width="160" height="64" as="geometry" />
        </mxCell>
        <mxCell id="6vWtqtXVMB1vAv6v9ba5-39" value="" style="line;strokeWidth=1;fillColor=none;align=left;verticalAlign=middle;spacingTop=-1;spacingLeft=3;spacingRight=3;rotatable=0;labelPosition=right;points=[];portConstraint=eastwest;strokeColor=inherit;" vertex="1" parent="6vWtqtXVMB1vAv6v9ba5-37">
          <mxGeometry y="90" width="160" height="8" as="geometry" />
        </mxCell>
        <mxCell id="6vWtqtXVMB1vAv6v9ba5-40" value="+ reserve()" style="text;strokeColor=none;fillColor=none;align=left;verticalAlign=top;spacingLeft=4;spacingRight=4;overflow=hidden;rotatable=0;points=[[0,0.5],[1,0.5]];portConstraint=eastwest;whiteSpace=wrap;html=1;" vertex="1" parent="6vWtqtXVMB1vAv6v9ba5-37">
          <mxGeometry y="98" width="160" height="26" as="geometry" />
        </mxCell>
        <mxCell id="6vWtqtXVMB1vAv6v9ba5-43" value="Seat" style="swimlane;fontStyle=1;align=center;verticalAlign=top;childLayout=stackLayout;horizontal=1;startSize=26;horizontalStack=0;resizeParent=1;resizeParentMax=0;resizeLast=0;collapsible=1;marginBottom=0;whiteSpace=wrap;html=1;" vertex="1" parent="1">
          <mxGeometry x="96" y="595" width="160" height="121" as="geometry" />
        </mxCell>
        <mxCell id="6vWtqtXVMB1vAv6v9ba5-44" value="&lt;div&gt;+ seatId: int&lt;/div&gt;&lt;div&gt;+ seatNumber: string&lt;/div&gt;&lt;div&gt;+ isAvailable: bool&lt;/div&gt;&lt;div&gt;+ row: string&lt;/div&gt;&lt;div&gt;&lt;br&gt;&lt;/div&gt;" style="text;strokeColor=none;fillColor=none;align=left;verticalAlign=top;spacingLeft=4;spacingRight=4;overflow=hidden;rotatable=0;points=[[0,0.5],[1,0.5]];portConstraint=eastwest;whiteSpace=wrap;html=1;flipH=1;" vertex="1" parent="6vWtqtXVMB1vAv6v9ba5-43">
          <mxGeometry y="26" width="160" height="64" as="geometry" />
        </mxCell>
        <mxCell id="6vWtqtXVMB1vAv6v9ba5-45" value="" style="line;strokeWidth=1;fillColor=none;align=left;verticalAlign=middle;spacingTop=-1;spacingLeft=3;spacingRight=3;rotatable=0;labelPosition=right;points=[];portConstraint=eastwest;strokeColor=inherit;" vertex="1" parent="6vWtqtXVMB1vAv6v9ba5-43">
          <mxGeometry y="90" width="160" height="5" as="geometry" />
        </mxCell>
        <mxCell id="6vWtqtXVMB1vAv6v9ba5-46" value="+ reserve()" style="text;strokeColor=none;fillColor=none;align=left;verticalAlign=top;spacingLeft=4;spacingRight=4;overflow=hidden;rotatable=0;points=[[0,0.5],[1,0.5]];portConstraint=eastwest;whiteSpace=wrap;html=1;" vertex="1" parent="6vWtqtXVMB1vAv6v9ba5-43">
          <mxGeometry y="95" width="160" height="26" as="geometry" />
        </mxCell>
        <mxCell id="6vWtqtXVMB1vAv6v9ba5-49" value="Ticket" style="swimlane;fontStyle=1;align=center;verticalAlign=top;childLayout=stackLayout;horizontal=1;startSize=26;horizontalStack=0;resizeParent=1;resizeParentMax=0;resizeLast=0;collapsible=1;marginBottom=0;whiteSpace=wrap;html=1;" vertex="1" parent="1">
          <mxGeometry x="96" y="737" width="182" height="188" as="geometry" />
        </mxCell>
        <mxCell id="6vWtqtXVMB1vAv6v9ba5-50" value="+ ticketid : int&lt;div&gt;+ price: Float&lt;/div&gt;&lt;div&gt;+ issueDate: DateTime&lt;/div&gt;&lt;div&gt;+ status: String&amp;nbsp;&lt;/div&gt;" style="text;strokeColor=none;fillColor=none;align=left;verticalAlign=top;spacingLeft=4;spacingRight=4;overflow=hidden;rotatable=0;points=[[0,0.5],[1,0.5]];portConstraint=eastwest;whiteSpace=wrap;html=1;" vertex="1" parent="6vWtqtXVMB1vAv6v9ba5-49">
          <mxGeometry y="26" width="182" height="82" as="geometry" />
        </mxCell>
        <mxCell id="6vWtqtXVMB1vAv6v9ba5-51" value="" style="line;strokeWidth=1;fillColor=none;align=left;verticalAlign=middle;spacingTop=-1;spacingLeft=3;spacingRight=3;rotatable=0;labelPosition=right;points=[];portConstraint=eastwest;strokeColor=inherit;" vertex="1" parent="6vWtqtXVMB1vAv6v9ba5-49">
          <mxGeometry y="108" width="182" height="4" as="geometry" />
        </mxCell>
        <mxCell id="6vWtqtXVMB1vAv6v9ba5-52" value="+ generateQRCode()&lt;div&gt;+ cancelTicket()&lt;/div&gt;&lt;div&gt;+ isValid()&lt;/div&gt;&lt;div&gt;+ getTicketDetails()&lt;/div&gt;" style="text;strokeColor=none;fillColor=none;align=left;verticalAlign=top;spacingLeft=4;spacingRight=4;overflow=hidden;rotatable=0;points=[[0,0.5],[1,0.5]];portConstraint=eastwest;whiteSpace=wrap;html=1;" vertex="1" parent="6vWtqtXVMB1vAv6v9ba5-49">
          <mxGeometry y="112" width="182" height="76" as="geometry" />
        </mxCell>
        <mxCell id="6vWtqtXVMB1vAv6v9ba5-53" value="Movie Package" style="shape=folder;fontStyle=1;spacingTop=10;tabWidth=137;tabHeight=31;tabPosition=left;html=1;whiteSpace=wrap;" vertex="1" parent="1">
          <mxGeometry x="822" y="590" width="554" height="364" as="geometry" />
        </mxCell>
        <mxCell id="6vWtqtXVMB1vAv6v9ba5-54" value="Movie" style="swimlane;fontStyle=1;align=center;verticalAlign=top;childLayout=stackLayout;horizontal=1;startSize=26;horizontalStack=0;resizeParent=1;resizeParentMax=0;resizeLast=0;collapsible=1;marginBottom=0;whiteSpace=wrap;html=1;" vertex="1" parent="1">
          <mxGeometry x="828" y="629" width="160" height="150" as="geometry" />
        </mxCell>
        <mxCell id="6vWtqtXVMB1vAv6v9ba5-55" value="&lt;div&gt;+ movieId: int&lt;/div&gt;&lt;div&gt;+ title: String&lt;/div&gt;&lt;div&gt;+ genre: String&lt;/div&gt;&lt;div&gt;+ duration: int&lt;/div&gt;&lt;div&gt;+ description: String&lt;/div&gt;" style="text;strokeColor=none;fillColor=none;align=left;verticalAlign=top;spacingLeft=4;spacingRight=4;overflow=hidden;rotatable=0;points=[[0,0.5],[1,0.5]];portConstraint=eastwest;whiteSpace=wrap;html=1;" vertex="1" parent="6vWtqtXVMB1vAv6v9ba5-54">
          <mxGeometry y="26" width="160" height="84" as="geometry" />
        </mxCell>
        <mxCell id="6vWtqtXVMB1vAv6v9ba5-56" value="" style="line;strokeWidth=1;fillColor=none;align=left;verticalAlign=middle;spacingTop=-1;spacingLeft=3;spacingRight=3;rotatable=0;labelPosition=right;points=[];portConstraint=eastwest;strokeColor=inherit;" vertex="1" parent="6vWtqtXVMB1vAv6v9ba5-54">
          <mxGeometry y="110" width="160" height="8" as="geometry" />
        </mxCell>
        <mxCell id="6vWtqtXVMB1vAv6v9ba5-57" value="&lt;div&gt;+ getDetails()&lt;/div&gt;" style="text;strokeColor=none;fillColor=none;align=left;verticalAlign=top;spacingLeft=4;spacingRight=4;overflow=hidden;rotatable=0;points=[[0,0.5],[1,0.5]];portConstraint=eastwest;whiteSpace=wrap;html=1;" vertex="1" parent="6vWtqtXVMB1vAv6v9ba5-54">
          <mxGeometry y="118" width="160" height="32" as="geometry" />
        </mxCell>
        <mxCell id="6vWtqtXVMB1vAv6v9ba5-62" value="Showtime" style="swimlane;fontStyle=1;align=center;verticalAlign=top;childLayout=stackLayout;horizontal=1;startSize=26;horizontalStack=0;resizeParent=1;resizeParentMax=0;resizeLast=0;collapsible=1;marginBottom=0;whiteSpace=wrap;html=1;" vertex="1" parent="1">
          <mxGeometry x="835" y="806" width="170" height="130" as="geometry">
            <mxRectangle x="320" y="300" width="90" height="30" as="alternateBounds" />
          </mxGeometry>
        </mxCell>
        <mxCell id="6vWtqtXVMB1vAv6v9ba5-63" value="&lt;div&gt;+ showtimeId: int&lt;/div&gt;&lt;div&gt;+ dateTime: datetime&lt;/div&gt;&lt;div&gt;+ movie: Movie&lt;/div&gt;&lt;div&gt;+ hall: Hall&lt;/div&gt;" style="text;strokeColor=none;fillColor=none;align=left;verticalAlign=top;spacingLeft=4;spacingRight=4;overflow=hidden;rotatable=0;points=[[0,0.5],[1,0.5]];portConstraint=eastwest;whiteSpace=wrap;html=1;" vertex="1" parent="6vWtqtXVMB1vAv6v9ba5-62">
          <mxGeometry y="26" width="170" height="64" as="geometry" />
        </mxCell>
        <mxCell id="6vWtqtXVMB1vAv6v9ba5-64" value="" style="line;strokeWidth=1;fillColor=none;align=left;verticalAlign=middle;spacingTop=-1;spacingLeft=3;spacingRight=3;rotatable=0;labelPosition=right;points=[];portConstraint=eastwest;strokeColor=inherit;" vertex="1" parent="6vWtqtXVMB1vAv6v9ba5-62">
          <mxGeometry y="90" width="170" height="8" as="geometry" />
        </mxCell>
        <mxCell id="6vWtqtXVMB1vAv6v9ba5-65" value="+ listSeat()" style="text;strokeColor=none;fillColor=none;align=left;verticalAlign=top;spacingLeft=4;spacingRight=4;overflow=hidden;rotatable=0;points=[[0,0.5],[1,0.5]];portConstraint=eastwest;whiteSpace=wrap;html=1;" vertex="1" parent="6vWtqtXVMB1vAv6v9ba5-62">
          <mxGeometry y="98" width="170" height="32" as="geometry" />
        </mxCell>
        <mxCell id="6vWtqtXVMB1vAv6v9ba5-66" value="&lt;div&gt;:Admin admin1&lt;/div&gt;&lt;div&gt;&amp;nbsp; username = &quot;adminAli&quot;&lt;/div&gt;" style="rounded=0;whiteSpace=wrap;html=1;" vertex="1" parent="1">
          <mxGeometry x="286" y="304" width="167" height="111" as="geometry" />
        </mxCell>
        <mxCell id="6vWtqtXVMB1vAv6v9ba5-67" value="&lt;div&gt;:MovieManager manager1&lt;/div&gt;&lt;div&gt;&amp;nbsp; username = &quot;Mohsen_film&quot;&lt;/div&gt;" style="rounded=0;whiteSpace=wrap;html=1;" vertex="1" parent="1">
          <mxGeometry x="468" y="307" width="167" height="111" as="geometry" />
        </mxCell>
        <mxCell id="6vWtqtXVMB1vAv6v9ba5-68" value="&lt;div&gt;:User user1&lt;/div&gt;&lt;div&gt;username = &quot;Hossein1212&quot;&lt;/div&gt;&lt;div&gt;email = Hossein@1212.com&quot;&lt;/div&gt;" style="rounded=0;whiteSpace=wrap;html=1;" vertex="1" parent="1">
          <mxGeometry x="89" y="304" width="167" height="111" as="geometry" />
        </mxCell>
        <mxCell id="6vWtqtXVMB1vAv6v9ba5-69" value="&lt;div&gt;:Seat seat1&lt;/div&gt;&lt;div&gt;&amp;nbsp; number = &quot;A5&quot;&lt;/div&gt;&lt;div&gt;&amp;nbsp; status = &quot;reserved&quot;&lt;/div&gt;&lt;div&gt;&lt;br&gt;&lt;/div&gt;" style="rounded=0;whiteSpace=wrap;html=1;" vertex="1" parent="1">
          <mxGeometry x="998" y="297" width="167" height="111" as="geometry" />
        </mxCell>
        <mxCell id="6vWtqtXVMB1vAv6v9ba5-70" value="&lt;div&gt;:Hall hall1&lt;/div&gt;&lt;div&gt;&amp;nbsp; name = &quot;Hall A&quot;&lt;/div&gt;" style="rounded=0;whiteSpace=wrap;html=1;" vertex="1" parent="1">
          <mxGeometry x="804" y="293" width="167" height="111" as="geometry" />
        </mxCell>
        <mxCell id="6vWtqtXVMB1vAv6v9ba5-71" value="&lt;div&gt;:Seat seat1&lt;/div&gt;&lt;div&gt;&amp;nbsp; number = &quot;A5&quot;&lt;/div&gt;&lt;div&gt;&amp;nbsp; status = &quot;reserved&quot;&lt;/div&gt;&lt;div&gt;&lt;br&gt;&lt;/div&gt;" style="rounded=0;whiteSpace=wrap;html=1;" vertex="1" parent="1">
          <mxGeometry x="492" y="605" width="167" height="111" as="geometry" />
        </mxCell>
        <mxCell id="6vWtqtXVMB1vAv6v9ba5-72" value="&lt;div&gt;:Ticket ticket1&lt;/div&gt;&lt;div&gt;&amp;nbsp; ticketID = &quot;T9087&quot;&lt;/div&gt;" style="rounded=0;whiteSpace=wrap;html=1;" vertex="1" parent="1">
          <mxGeometry x="492" y="822" width="167" height="111" as="geometry" />
        </mxCell>
        <mxCell id="6vWtqtXVMB1vAv6v9ba5-73" value="&lt;div&gt;:Movie movie1&lt;/div&gt;&lt;div&gt;&amp;nbsp; title = &quot;Oppenheimer&quot;&lt;/div&gt;&lt;div&gt;&amp;nbsp; genre = &quot;Drama&quot;&lt;/div&gt;&lt;div&gt;&amp;nbsp; duration = 180&lt;/div&gt;" style="rounded=0;whiteSpace=wrap;html=1;" vertex="1" parent="1">
          <mxGeometry x="1186" y="629" width="167" height="111" as="geometry" />
        </mxCell>
        <mxCell id="6vWtqtXVMB1vAv6v9ba5-74" value="&lt;div&gt;:Showtime show1&lt;/div&gt;&lt;div&gt;&amp;nbsp; date = &quot;2025-05-12&quot;&lt;/div&gt;&lt;div&gt;&amp;nbsp; time = &quot;19:30&quot;&lt;/div&gt;" style="rounded=0;whiteSpace=wrap;html=1;" vertex="1" parent="1">
          <mxGeometry x="1192" y="822" width="167" height="111" as="geometry" />
        </mxCell>
        <mxCell id="6vWtqtXVMB1vAv6v9ba5-75" value="Use" style="endArrow=open;endSize=12;dashed=1;html=1;rounded=0;entryX=0.899;entryY=0.989;entryDx=0;entryDy=0;entryPerimeter=0;exitX=0;exitY=0;exitDx=0;exitDy=0;exitPerimeter=0;" edge="1" parent="1" source="6vWtqtXVMB1vAv6v9ba5-53" target="6vWtqtXVMB1vAv6v9ba5-1">
          <mxGeometry width="160" relative="1" as="geometry">
            <mxPoint x="612" y="1071" as="sourcePoint" />
            <mxPoint x="772" y="1071" as="targetPoint" />
          </mxGeometry>
        </mxCell>
        <mxCell id="6vWtqtXVMB1vAv6v9ba5-76" value="Ticket reservation" style="endArrow=open;endSize=12;dashed=1;html=1;rounded=0;exitX=0.25;exitY=1;exitDx=0;exitDy=0;exitPerimeter=0;entryX=0.279;entryY=0.102;entryDx=0;entryDy=0;entryPerimeter=0;" edge="1" parent="1" source="6vWtqtXVMB1vAv6v9ba5-1" target="6vWtqtXVMB1vAv6v9ba5-36">
          <mxGeometry width="160" relative="1" as="geometry">
            <mxPoint x="363" y="545" as="sourcePoint" />
            <mxPoint x="523" y="545" as="targetPoint" />
          </mxGeometry>
        </mxCell>
        <mxCell id="6vWtqtXVMB1vAv6v9ba5-81" value="Hall reservation" style="endArrow=open;endSize=12;dashed=1;html=1;rounded=0;entryX=0.196;entryY=1.001;entryDx=0;entryDy=0;entryPerimeter=0;exitX=1.002;exitY=0.169;exitDx=0;exitDy=0;exitPerimeter=0;" edge="1" parent="1" source="6vWtqtXVMB1vAv6v9ba5-36" target="6vWtqtXVMB1vAv6v9ba5-17">
          <mxGeometry width="160" relative="1" as="geometry">
            <mxPoint x="733" y="513" as="sourcePoint" />
            <mxPoint x="893" y="513" as="targetPoint" />
          </mxGeometry>
        </mxCell>
        <mxCell id="6vWtqtXVMB1vAv6v9ba5-82" value="Show in the hall" style="endArrow=open;endSize=12;dashed=1;html=1;rounded=0;entryX=0.537;entryY=0.994;entryDx=0;entryDy=0;entryPerimeter=0;exitX=0.52;exitY=0.097;exitDx=0;exitDy=0;exitPerimeter=0;" edge="1" parent="1" source="6vWtqtXVMB1vAv6v9ba5-53" target="6vWtqtXVMB1vAv6v9ba5-17">
          <mxGeometry width="160" relative="1" as="geometry">
            <mxPoint x="1085" y="584" as="sourcePoint" />
            <mxPoint x="1245" y="584" as="targetPoint" />
          </mxGeometry>
        </mxCell>
      </root>
    </mxGraphModel>
  </diagram>
</mxfile>
